<svg viewBox="0 0 1318 991" preserveAspectRatio="none" fill="none" xmlns="http://www.w3.org/2000/svg">
<path d="M1319 89.9318C924.033 7.4193 470.493 22.3086 -6 76.9036V165H1319V89.9318Z" fill="#C74F4F"/>
<path d="M1319 148.098C934.5 12 342.5 1.50002 -6 139.899V991H1319V148.098Z" fill="#690808"/>
<mask id="mask0_629_2" style="mask-type:alpha" maskUnits="userSpaceOnUse" x="-6" y="40" width="1325" height="951">
<path d="M1319 148.098C934.5 12 342.5 1.50002 -6 139.899V991H1319V148.098Z" fill="#690808"/>
</mask>
<g mask="url(#mask0_629_2)">
<path d="M980.5 347.5C651.7 355.1 575.5 129.333 578.5 15.5C692.167 -2.83331 931.7 -41.3 980.5 -48.5C1029.3 -55.7 1303.17 60.1667 1434 119C1419.83 192 1309.3 339.9 980.5 347.5Z" fill="#840303"/>
</g>
<path d="M-18 187.5C92.3333 134.833 340.4 74.3999 450 254C587 478.5 826.334 654.188 916 662.5C1094 679 1113.49 646.922 1214.5 421C1261 317 1343.5 254 1401 339" stroke="#BC5A5A" stroke-width="4"/>
<path d="M392.5 369C375.308 160.638 138.656 214.918 -6 220.584V934H1317V339.57C1227.59 339.57 1217.5 696 1009.5 696C737 696 757 575 635.5 510.5C528.991 453.958 405 520.5 392.5 369Z" fill="#9B2727"/>
<path d="M2 294.75C83.5512 272.093 305.372 260.53 274.341 386.213C226 582 323.72 487.428 484 559C643 630 512.5 794.5 831.607 735.315C988.003 706.308 1049 831.5 1097 735.315L1097.59 734.137C1134.07 661.024 1177.91 573.175 1252.95 641.853C1290.59 676.293 1321.06 613.563 1322.93 549.465V537.151C1323.05 541.245 1323.05 545.358 1322.93 549.465V910H2V294.75Z" fill="#7C1515"/>
<path d="M158.919 443.787C158.919 331.45 50.9731 354.46 -3 380.007V991H1318V693.007C1305.93 652.81 1221.95 695.151 1215.92 829.141C1209.89 963.13 1117.86 859.154 1068.08 829.141C1018.3 799.127 984.104 910.07 954.436 946.516C924.767 982.961 912.196 869.873 814.642 869.873C717.088 869.873 695.497 1062.75 664.791 869.873C644 739.271 586 754.642 534.552 754.642C463.5 754.642 353.021 867.73 357.044 726.773C361.067 585.816 242.896 571.345 226.805 573.489C210.713 575.632 158.919 584.208 158.919 443.787Z" fill="#450E0E"/>
<path d="M-39 92C145.567 24.0839 677.16 -70.9987 1327 92" stroke="#E9BBBB" stroke-width="4"/>
</svg>
