<svg viewBox="0 0 1318 828" preserveAspectRatio="none" fill="none" xmlns="http://www.w3.org/2000/svg">
<path d="M-2 240C20.3377 162.565 185.222 72.648 713.856 160.333C984.273 205.188 1333.27 104.991 1318.55 1" stroke="#F9D4D4" stroke-width="4"/>
<path d="M705.255 780.487C437.037 685.433 123.328 770.252 0 824.542V659H1319V759.794C1226.18 806.297 973.472 875.54 705.255 780.487Z" fill="#E58B8B"/>
<path d="M536.812 726.717C339.262 700.223 114.615 737.075 0 778.209V677H1319V750.687C1143.5 802.18 989.039 787.367 536.812 726.717Z" fill="#C74F4F"/>
<path d="M519.147 158.591C194.302 114.716 39.0303 199.167 2 246.877V285L1319 194.708V79C1158.11 161.266 925.202 213.435 519.147 158.591Z" fill="#DC6969"/>
<path d="M659.5 181.913C297.863 152.214 68.2434 194.993 0 210.877V754.651C0 754.651 251.814 694.537 676.281 742.037C1100.75 789.537 1319 754.651 1319 754.651V138C1250.76 158.711 1012.18 210.877 659.5 181.913Z" fill="url(#paint0_linear_578_3)"/>
<mask id="mask0_578_3" style="mask-type:alpha" maskUnits="userSpaceOnUse" x="0" y="138" width="1319" height="629">
<path d="M659.5 181.913C297.863 152.214 68.2434 194.993 0 210.877V754.651C0 754.651 251.814 694.537 676.281 742.037C1100.75 789.537 1319 754.651 1319 754.651V138C1250.76 158.711 1012.18 210.877 659.5 181.913Z" fill="url(#paint1_linear_578_3)"/>
</mask>
<g mask="url(#mask0_578_3)">
<path d="M250.34 533.821C150.702 433.346 43.2641 436.915 2 451.259V776L1994 750.481V367.197C1928.78 321.163 1829.95 459.099 1788.69 533.821C1739.12 619.217 1615.68 760.689 1518.46 643.402C1421.23 526.115 1324.67 512.427 1216.52 550.833L1215.87 551.066C1068.3 603.472 973.298 637.208 858.734 576.852C743.999 516.408 614.671 563.676 564.349 594.866C501.195 616.382 349.977 634.295 250.34 533.821Z" fill="#6C0F0F"/>
<path d="M89.8434 520C85.0125 467.2 25.9349 460 -3 463V780L1992 755.5V462C1990.99 488.5 1979.77 536.4 1942.94 516C1896.89 490.5 1847.83 564.5 1844.81 638C1841.79 711.5 1742.91 736.5 1688.56 708.5C1634.21 680.5 1563.26 712 1552.69 718C1542.12 724 1403.99 778.5 1357.19 690.5C1319.75 620.1 1260.58 630.833 1235.67 645C1194.15 673.333 1115.72 712.269 1029.6 664C960.91 625.5 871.086 638.833 836.364 664C797.868 691.667 714.536 722.2 671.058 661C627.58 599.8 558.337 632.167 529.151 656C486.378 687.667 393.283 733.7 363.09 664.5C332.897 595.3 239.299 584.667 196.274 588C162.81 587.333 94.6742 572.8 89.8434 520Z" fill="#4C0A0A"/>
</g>

<svg viewBox="0 0 1200 800" >
  <g clip-path="url(#clip0_578_3)">
  <path d="M204.6 299C202 297.1 201.5 294.6 204 294.4C206.5 294.2 220.4 299.5 224.1 308.1C227 314.8 217.2 314.3 215.6 314.1C211.7 313.7 199.8 309.2 192.8 303.4C185.8 297.5 179 288.9 180 284.3C181.1 279.6 189.7 278.3 196.4 279C203.1 279.7 211 283.8 211 283.8" stroke="white" stroke-miterlimit="10" stroke-linecap="round" stroke-linejoin="round"/>
  <path d="M209.1 298.8C209.1 298.8 217 303.3 212.8 304.9C208.6 306.5 198.1 300.3 194.9 295.9C192.1 292.1 191.8 290.4 195.9 288.7C200 287 210.9 289.3 219.2 295.2C231.4 303.9 237.4 313.9 234.2 320.3C229.8 328.9 213 323 202.4 317.2" stroke="white" stroke-miterlimit="10" stroke-linecap="round" stroke-linejoin="round"/>
  <path d="M192.3 274C187.1 272.5 175 274.5 172.9 283.2C170.7 291.9 185.8 304.7 185.8 304.7" stroke="white" stroke-miterlimit="10" stroke-linecap="round" stroke-linejoin="round" stroke-dasharray="1 1"/>
  <path d="M228.8 309.5C228.8 309.5 236 322.9 217.7 319" stroke="white" stroke-miterlimit="10" stroke-linecap="round" stroke-linejoin="round" stroke-dasharray="1 1"/>
  <path d="M217.6 283.9L217.2 285.7L218.3 286.7C218.5 286.8 218.3 287.1 218.1 287L216.6 286.6L215.3 287.8C215.2 287.9 214.9 287.8 215 287.6L215.3 285.9L214.3 284.8C214.2 284.6 214.3 284.4 214.5 284.5L215.9 285L217.3 283.7C217.4 283.6 217.6 283.7 217.6 283.9Z" stroke="white" stroke-miterlimit="10" stroke-linecap="round" stroke-linejoin="round"/>
  <path d="M221.5 289.3C222.1 289.3 222.1 288.3 221.5 288.3C220.8 288.3 220.8 289.3 221.5 289.3Z" fill="white"/>
  <path d="M224.3 291.2C224.9 291.2 224.9 290.2 224.3 290.2C223.7 290.2 223.7 291.2 224.3 291.2Z" fill="white"/>
  <path d="M199.7 312.7L199.3 314.5L200.4 315.5C200.6 315.6 200.4 315.9 200.2 315.8L198.7 315.4L197.4 316.6C197.3 316.7 197 316.6 197.1 316.4L197.4 314.7L196.4 313.6C196.3 313.4 196.4 313.2 196.6 313.3L198 313.8L199.4 312.5C199.5 312.3 199.7 312.5 199.7 312.7Z" stroke="white" stroke-miterlimit="10" stroke-linecap="round" stroke-linejoin="round"/>
  <path d="M193.9 312.6C194.5 312.6 194.5 311.6 193.9 311.6C193.3 311.6 193.3 312.6 193.9 312.6Z" fill="white"/>
  <path d="M191 310.7C191.6 310.7 191.6 309.7 191 309.7C190.3 309.7 190.3 310.7 191 310.7Z" fill="white"/>
  <path d="M247.7 304L246.8 307L248.5 308.7C248.7 308.9 248.5 309.4 248.2 309.3L245.7 308.6L243.5 310.4C243.3 310.6 242.9 310.4 243 310.1L243.7 307.3L242.1 305.3C241.9 305 242.2 304.7 242.5 304.8L244.8 305.7L247.2 303.7C247.4 303.5 247.7 303.7 247.7 304Z" stroke="white" stroke-miterlimit="10" stroke-linecap="round" stroke-linejoin="round"/>
  <path d="M163.2 281L162.3 284L164 285.7C164.2 285.9 164 286.4 163.7 286.3L161.2 285.6L159 287.4C158.8 287.6 158.4 287.4 158.5 287.1L159.2 284.3L157.6 282.3C157.4 282 157.6 281.6 158 281.8L160.3 282.7L162.7 280.7C162.9 280.4 163.3 280.7 163.2 281Z" stroke="white" stroke-miterlimit="10" stroke-linecap="round" stroke-linejoin="round"/>
  </g>
</svg>
<!-- <circle viewBox="0 0 100 100" cx="98.5" cy="621.5" r="3.5" fill="#E76363"/>
<circle cx="50.5" cy="417.5" r="3.5" fill="#E76363"/>
<circle cx="241.5" cy="620.5" r="2.5" fill="#E76363"/>
<circle cx="986.5" cy="729.5" r="2.5" fill="#E76363"/>
<circle cx="1173.5" cy="577.5" r="2.5" fill="#E76363"/>
<circle cx="1151.5" cy="734.5" r="2.5" fill="#E76363"/>
<circle cx="1239.5" cy="471.5" r="2.5" fill="#E76363"/> -->
<!-- <path d="M269.5 630C270.957 633.938 274.062 637.043 278 638.5C274.062 639.957 270.957 643.062 269.5 647C268.043 643.062 264.938 639.957 261 638.5C264.938 637.043 268.043 633.938 269.5 630Z" fill="#E76363"/>
<path d="M133 495C134.2 498.243 136.757 500.8 140 502C136.757 503.2 134.2 505.757 133 509C131.8 505.757 129.243 503.2 126 502C129.243 500.8 131.8 498.243 133 495Z" fill="#E76363"/>
<path d="M176.5 619C177.957 622.938 181.062 626.043 185 627.5C181.062 628.957 177.957 632.062 176.5 636C175.043 632.062 171.938 628.957 168 627.5C171.938 626.043 175.043 622.938 176.5 619Z" fill="#E76363"/>
<path d="M1065.5 690C1066.96 693.938 1070.06 697.043 1074 698.5C1070.06 699.957 1066.96 703.062 1065.5 707C1064.04 703.062 1060.94 699.957 1057 698.5C1060.94 697.043 1064.04 693.938 1065.5 690Z" fill="#E76363"/>
<path d="M1197.5 499C1198.96 502.938 1202.06 506.043 1206 507.5C1202.06 508.957 1198.96 512.062 1197.5 516C1196.04 512.062 1192.94 508.957 1189 507.5C1192.94 506.043 1196.04 502.938 1197.5 499Z" fill="#E76363"/>
<path d="M1160 695C1161.03 697.78 1163.22 699.971 1166 701C1163.22 702.029 1161.03 704.22 1160 707C1158.97 704.22 1156.78 702.029 1154 701C1156.78 699.971 1158.97 697.78 1160 695Z" fill="#E76363"/>
<path d="M1217 597L1217.56 598.505C1219.09 602.646 1222.35 605.911 1226.49 607.443L1228 608L1226.49 608.557C1222.35 610.089 1219.09 613.354 1217.56 617.495L1217 619L1216.44 617.495C1214.91 613.354 1211.65 610.089 1207.51 608.557L1206 608L1207.51 607.443C1211.65 605.911 1214.91 602.646 1216.44 598.505L1217 597Z" fill="#E76363"/>
<path d="M110 444C111.2 447.243 113.757 449.8 117 451C113.757 452.2 111.2 454.757 110 458C108.8 454.757 106.243 452.2 103 451C106.243 449.8 108.8 447.243 110 444Z" fill="#E76363"/>
<path d="M54.5 543C55.9572 546.938 59.062 550.043 63 551.5C59.062 552.957 55.9572 556.062 54.5 560C53.0428 556.062 49.938 552.957 46 551.5C49.938 550.043 53.0428 546.938 54.5 543Z" fill="#E76363"/> -->
<defs>
<linearGradient id="paint0_linear_578_3" x1="659.5" y1="138" x2="659.5" y2="754.651" gradientUnits="userSpaceOnUse">
<stop stop-color="#C12121"/>
<stop offset="1" stop-color="#5E1919"/>
</linearGradient>
<linearGradient id="paint1_linear_578_3" x1="659.5" y1="138" x2="659.5" y2="754.651" gradientUnits="userSpaceOnUse">
<stop stop-color="#C12121"/>
<stop offset="1" stop-color="#5E1919"/>
</linearGradient>
<clipPath id="clip0_578_3">
<rect width="92.1" height="52.1" fill="white" transform="translate(157 273)"/>
</clipPath>
</defs>
</svg>
