<svg width="1291" height="577" viewBox="0 0 1291 577" fill="none" xmlns="http://www.w3.org/2000/svg">
<g clip-path="url(#clip0_578_6)">
<path d="M109.5 407.7C64.7999 404.7 44.1999 441.9 47.8999 473.6C51.5999 505.3 74.6999 517.8 96.3999 519.7C118.2 521.6 154.9 507.9 160.5 473.6C164.9 447.2 147.5 410.2 109.5 407.7Z" stroke="#5D0505" stroke-miterlimit="10" stroke-linecap="round" stroke-linejoin="round"/>
<path d="M127.7 457.8C119.6 457.1 110.4 462 111.1 466.3C111.8 470.5 119.6 470.2 126.7 466.3C133.8 462.4 127.7 457.8 127.7 457.8Z" stroke="#5D0505" stroke-miterlimit="10" stroke-linecap="round" stroke-linejoin="round"/>
<path d="M81.3998 433.4C74.1998 433.4 71.2998 434.4 73.2998 438C75.2998 441.6 74.5998 445.5 79.4998 444.8C84.3998 444.1 87.5998 441.9 87.2998 438.6C86.9998 435.3 81.3998 433.4 81.3998 433.4Z" stroke="#5D0505" stroke-miterlimit="10" stroke-linecap="round" stroke-linejoin="round"/>
<path d="M77.5 500.4C82.1 498.1 84.7 498.8 87.3 500.4C89.9 502 90.6 504.6 89.9 506.6C89.2 508.6 82.7 504.6 80.1 504C77.5 503.4 77.5 500.4 77.5 500.4Z" stroke="#5D0505" stroke-miterlimit="10" stroke-linecap="round" stroke-linejoin="round"/>
<path d="M62.6 427.7C63.2 427.7 63.2 426.7 62.6 426.7C61.9 426.7 61.9 427.7 62.6 427.7Z" fill="#5D0505"/>
<path d="M61.5999 426.9C62.7999 429 65.0999 430 67.3999 430.3C70.3999 430.7 73.3999 429.7 76.3999 429.4C82.0999 429 86.5999 432.8 91.3999 435.3C93.9999 436.6 96.6999 437.4 99.6999 437.5C102.9 437.7 106.2 437.5 109.4 437.1C115.8 436.3 122 434.6 127.9 432.1C131 430.8 134.1 429.2 137.3 428.2C140.5 427.2 143.9 426.6 147.2 427.5C147.8 427.7 148.1 426.7 147.5 426.5C141.8 424.8 135.9 427.4 130.8 429.7C128 431 125.1 432.2 122.2 433.2C119.1 434.2 116 435 112.8 435.6C109.7 436.1 106.5 436.5 103.3 436.6C100.2 436.7 97.0999 436.6 94.1999 435.5C89.2999 433.6 85.2999 429.7 80.0999 428.7C76.5999 428 73.2999 429.2 69.7999 429.4C67.1999 429.6 63.9999 428.9 62.5999 426.4C62.1999 425.9 61.2999 426.4 61.5999 426.9Z" fill="#5D0505"/>
<path d="M58.3 431.8C61.6 433 64.6 434.9 67 437.4C68.2 438.7 69.3 440.1 70.2 441.6C71.1 443.1 71.9 444.6 73.2 445.8C75.6 448.2 78.8999 448.7 82.0999 448.1C85.6999 447.5 88.7999 445.7 92 444.1C95.2999 442.5 98.9 441.1 102.7 441.8C106 442.4 109.1 444 112.2 445.3C115.4 446.5 118.7 447.3 122.1 446.3C125.6 445.3 128.5 443 131.2 440.6C133.9 438.2 136.5 435.4 139.9 433.9C142.7 432.6 146.3 432.1 149.3 432.9C150 433.1 150.6 433.3 151.2 433.7C151.8 434 152.3 433.2 151.7 432.8C149.1 431.2 145.7 431.3 142.8 431.9C139.4 432.6 136.6 434.4 134.1 436.6C131.3 439 128.7 441.8 125.4 443.7C123.8 444.6 122 445.4 120.2 445.6C118.5 445.8 116.8 445.6 115.2 445.1C111.9 444.2 108.9 442.5 105.7 441.4C104.1 440.9 102.5 440.5 100.8 440.5C99 440.5 97.1 440.9 95.4 441.5C91.9 442.8 88.8 444.9 85.4 446.1C82.3 447.2 78.5 447.8 75.5 446.1C74 445.2 72.9 443.7 72 442.2C70.9 441 70 439.5 69 438.1C66.8 435.4 64 433.2 60.9 431.8C60.1 431.4 59.4 431.1 58.6 430.9C58 430.7 57.7 431.6 58.3 431.8Z" fill="#5D0505"/>
<path d="M55.9998 435C59.4998 435.2 62.2998 437.6 64.3998 440.1C66.5998 442.7 68.1998 445.8 70.4998 448.3C72.7998 450.8 75.7998 452.5 79.1998 453.1C82.5998 453.7 86.0998 453.5 89.4998 452.8C93.3998 452.1 97.1998 450.9 101.2 450.3C105.3 449.7 109.2 450 113.3 450.7C117.1 451.3 120.9 451.9 124.7 451.4C128.3 450.9 131.4 449.2 134.4 447.2C137.3 445.2 140 443 143.2 441.5C146.2 440.1 149.8 439.2 153.1 439.9C153.9 440.1 154.7 440.4 155.4 440.8C156 441.1 156.5 440.2 155.9 439.9C153 438.3 149.6 438.3 146.4 439.2C143 440.1 140 441.9 137.2 443.9C134.3 445.9 131.4 448.2 128.1 449.4C124.4 450.8 120.4 450.7 116.5 450.1C112.6 449.6 108.7 448.7 104.8 448.9C100.8 449.1 96.7998 450.1 92.8998 451C86.0998 452.6 77.9998 453.8 72.2998 448.6C67.3998 444.1 65.0998 436.5 58.2998 434.3C57.5998 434.2 56.7998 434 55.9998 434C55.3998 434 55.3998 435 55.9998 435Z" fill="#5D0505"/>
<path d="M158.4 447.2C155.2 444.9 151.1 445.2 147.6 446.4C143.7 447.7 140.5 450.2 136.9 452.2C135.1 453.2 133.1 454.2 131.1 454.7C128.9 455.2 126.6 455.1 124.4 454.9C122.2 454.7 120 454.5 117.7 454.9C115.8 455.2 114.1 456.1 112.5 457.2C109.4 459.4 106.9 462.5 103.4 464.3C99.9998 466.1 95.9998 466.7 92.1998 466.4C88.2998 466.1 84.4998 464.9 81.0998 462.9C77.7998 461 74.7998 457.7 70.7998 457.4C68.5998 457.2 66.4998 458.5 64.2998 457.9C62.6998 457.5 61.5998 456.1 60.7998 454.8C59.8998 453.4 59.0998 451.9 58.0998 450.6C56.8998 449.1 55.2998 448 53.4998 447.2C52.5998 446.8 51.5998 446.6 50.6998 446.4C50.0998 446.3 49.7998 447.3 50.3998 447.4C52.3998 447.7 54.2998 448.5 55.7998 449.7C57.1998 450.9 58.0998 452.4 59.0998 453.9C59.8998 455.3 60.7998 456.7 61.9998 457.7C63.3998 458.9 65.0998 459.1 66.8998 458.8C68.0998 458.6 69.1998 458.2 70.3998 458.3C71.3998 458.3 72.3998 458.6 73.2998 459C75.0998 459.8 76.6998 461.1 78.3998 462.3C81.5998 464.5 85.1998 466.1 88.9998 466.8C92.6998 467.5 96.5998 467.6 100.2 466.5C102 466 103.7 465.2 105.3 464.2C106.9 463.2 108.3 461.9 109.7 460.7C111.1 459.4 112.6 458.1 114.3 457.1C116.2 456 118.2 455.5 120.3 455.5C122.6 455.5 124.8 455.9 127.1 455.9C129.2 456 131.3 455.6 133.3 454.9C137.2 453.5 140.5 450.9 144.1 448.9C147.4 447.1 151.6 445.6 155.4 446.7C156.3 447 157.2 447.4 157.9 447.9C158.4 448.4 158.9 447.5 158.4 447.2Z" fill="#5D0505"/>
<path d="M48.7999 453.3C51.4999 455.6 50.9999 459.8 52.6999 462.7C54.8999 466.4 59.1999 466 62.8999 465.7C65.0999 465.5 67.2999 465.5 69.4999 466.1C71.7999 466.7 73.8999 467.7 75.6999 469.2C77.4999 470.6 78.9999 472.3 80.9999 473.5C82.5999 474.5 84.4999 475.1 86.2999 475.3C90.5999 475.9 94.9999 474.7 98.2999 471.8C97.9999 471.6 97.6999 471.5 97.4999 471.3C97.4999 471.4 97.3999 471.5 97.3999 471.6C97.2999 472.1 97.8999 472.4 98.1999 472.1C99.9999 470.5 102.6 470.4 104.9 470.8C107.5 471.3 109.8 472.5 112.2 473.4C114.7 474.3 117.2 474.8 119.9 474.4C122.6 474 125.1 472.9 127.4 471.6C129.6 470.4 131.8 469.1 133 466.9C133.6 465.8 134 464.6 134.5 463.4C134.9 462.5 135.4 461.6 136 460.7C138.3 457.4 141.8 455 145.6 453.7C149.9 452.2 154.7 451.9 159.1 453.4C159.7 453.6 160 452.6 159.4 452.4C151.7 449.8 142.3 452.3 136.8 458.2C135.4 459.7 134.3 461.4 133.5 463.3C133 464.6 132.5 465.9 131.7 467C130.9 468.1 129.9 468.8 128.8 469.5C126.6 471 124 472.3 121.3 473C118.5 473.7 115.8 473.5 113.1 472.6C110.3 471.6 107.7 470.2 104.8 469.8C102.3 469.4 99.5999 469.7 97.5999 471.4C97.8999 471.6 98.1999 471.7 98.3999 471.9C98.3999 471.8 98.4999 471.7 98.4999 471.6C98.5999 471.1 97.9999 470.8 97.6999 471.1C94.7999 473.6 90.9999 474.7 87.1999 474.4C85.2999 474.2 83.4999 473.7 81.7999 472.8C79.7999 471.7 78.2999 470 76.4999 468.6C73.1999 465.9 68.9999 464.4 64.5999 464.6C61.2999 464.7 56.3999 466 53.9999 462.7C51.7999 459.7 52.5999 455.2 49.5999 452.6C49.0999 452.1 48.3999 452.8 48.7999 453.3Z" fill="#5D0505"/>
<path d="M47.7999 464.9C51.6999 466.3 54.8999 469.2 58.0999 471.7C59.6999 473 61.2999 474.2 63.0999 475.2C64.9999 476.3 66.9999 476.8 69.1999 477.1C70.4999 477.3 71.7999 477.4 72.9999 477.9C74.0999 478.3 75.1999 478.9 76.1999 479.6C78.1999 481 80.0999 482.5 82.2999 483.6C84.4999 484.8 86.7999 485.8 89.1999 486.5C91.3999 487.1 93.7999 487.4 95.8999 486.4C99.3999 484.9 100.4 480.9 102.7 478.2C104.2 476.5 106.1 475.8 108.3 475.9C110.7 476 113.1 476.9 115.4 477.4C119.8 478.3 124.7 478.6 128.8 476.5C132.1 474.8 134.3 471.7 136.5 468.7C138.6 465.8 140.7 462.7 144.1 461.2C146.3 460.2 148.8 460.2 151.1 460.5C153.3 460.7 155.4 461.2 157.5 461.8C158.5 462.1 159.4 462.4 160.3 462.9C160.9 463.2 161.4 462.3 160.8 462C158.9 461.1 156.9 460.5 154.9 460.1C152.8 459.7 150.6 459.3 148.5 459.4C146.3 459.4 144.1 459.9 142.3 461.1C140.8 462 139.5 463.3 138.4 464.6C136 467.4 134.2 470.7 131.6 473.3C130.1 474.7 128.4 475.9 126.4 476.5C124.2 477.2 121.8 477.3 119.5 477.1C117.1 476.9 114.8 476.3 112.5 475.7C110.3 475.1 107.9 474.6 105.6 475.3C101.7 476.4 100.5 480.3 98.2999 483.2C96.9999 484.9 95.3999 486 93.1999 486.1C90.6999 486.2 88.2999 485.3 85.9999 484.3C83.6999 483.3 81.4999 482 79.3999 480.6C77.4999 479.2 75.5999 477.7 73.2999 476.9C70.9999 476 68.3999 476.1 65.9999 475.3C64.0999 474.6 62.3999 473.6 60.6999 472.4C57.2999 470 54.3999 467 50.6999 465.1C49.7999 464.6 48.9999 464.2 47.9999 463.9C47.4999 463.7 47.1999 464.6 47.7999 464.9Z" fill="#5D0505"/>
<path d="M57.9999 499.1C59.2999 496 61.7999 493.6 64.5999 492C67.5999 490.3 70.8999 489.5 74.2999 489.7C82.8999 490.2 90.3999 494.9 98.4999 497.1C102.4 498.2 106.6 498.8 110.6 498C112.4 497.6 114.1 496.8 115.5 495.5C116.9 494.3 118.1 492.8 119.4 491.5C124.7 486.3 132 483.3 139.4 483.3C143 483.3 146.8 484.3 150.2 482.9C153.1 481.8 154.7 478.8 157.4 477.3C158.1 476.9 158.8 476.6 159.6 476.5C160.2 476.4 160.2 475.4 159.6 475.5C156.4 475.9 154.4 478.5 152.1 480.5C150.7 481.7 149.2 482.3 147.4 482.5C145.5 482.7 143.6 482.5 141.7 482.3C134.3 481.8 126.9 484.1 121 488.7C119.5 489.9 118.2 491.2 117 492.5C115.7 493.9 114.4 495.3 112.6 496.1C110.7 497 108.5 497.2 106.4 497.2C104.3 497.2 102.1 496.8 99.9999 496.3C91.6999 494.3 84.1999 489.6 75.6999 488.7C72.0999 488.3 68.6999 488.7 65.4999 490.3C62.5999 491.7 59.8999 493.9 58.0999 496.7C57.6999 497.4 57.2999 498.1 56.9999 498.8C56.7999 499.4 57.6999 499.7 57.9999 499.1Z" fill="#5D0505"/>
<path d="M63.4999 505.8C64.5999 502.9 66.8999 500.7 69.6999 499.3C72.8999 497.7 76.5999 497.2 80.1999 497.2C81.9999 497.2 83.8999 497.3 85.6999 497.4C87.4999 497.6 89.2999 497.8 90.8999 498.7C93.6999 500.1 95.3999 502.9 97.8999 504.7C100.7 506.7 104.2 506.8 107.5 506.8C109.3 506.8 111.1 506.8 112.8 506.4C114.2 506 115.5 505.3 116.6 504.3C118.9 502.4 120.4 499.8 122.3 497.6C124.4 495.1 127.1 493.3 130 492.1C137.8 488.9 146.5 490 154.6 491.1C155.2 491.2 155.5 490.2 154.9 490.1C147.4 489.1 139.6 488 132.2 490.2C129.1 491.1 126.2 492.6 123.7 494.6C121.3 496.6 119.7 499.2 117.8 501.6C116.8 502.7 115.7 503.8 114.4 504.6C112.8 505.5 110.9 505.7 109.1 505.8C105.7 505.9 101.7 506 98.7999 504C96.1999 502.3 94.4999 499.5 91.6999 497.9C88.5999 496.2 84.6999 496.2 81.2999 496.2C77.2999 496.1 73.2999 496.5 69.6999 498.3C66.5999 499.8 63.9999 502.3 62.7999 505.5C62.2999 506.2 63.1999 506.4 63.4999 505.8Z" fill="#5D0505"/>
<path d="M66.4 507.7C67.3 505.6 69.6 504.9 71.8 505C74.4 505.1 76.5 506.4 78.5 507.9C80.8 509.5 83 511.3 85.8 512C88.8 512.8 91.8 512.2 94.8 511.6C96.3 511.3 97.9 511 99.5 510.9C101 510.8 102.6 510.9 104.1 511.2C107 511.7 110 512.7 113 512.5C114.4 512.4 115.7 512 116.9 511.2C118.1 510.4 119.1 509.4 120.1 508.4C122.2 506.3 124.4 504.3 126.9 502.7C132.6 499.1 140 497.7 146.2 500.9C146.8 501.2 147.3 500.3 146.7 500C141.2 497.2 134.8 497.7 129.3 500.2C126.6 501.5 124.1 503.2 121.9 505.2C120.8 506.2 119.7 507.3 118.6 508.4C117.5 509.5 116.3 510.5 114.8 511C111.9 512 108.7 511.1 105.8 510.5C104.3 510.2 102.8 509.9 101.2 509.8C99.6 509.7 98 510 96.5 510.2C93.4 510.7 90.2 511.6 87 511.1C84 510.6 81.6 508.7 79.2 507C76.9 505.3 74.5 503.9 71.5 503.9C69.1 503.8 66.6 504.8 65.6 507.1C65.2 507.8 66.1 508.3 66.4 507.7Z" fill="#5D0505"/>
<path d="M72.6998 423.4C78.3998 422.1 84.4998 422.8 89.5998 425.5C92.0998 426.8 94.4998 428.6 97.1998 429.6C99.8998 430.6 102.8 430.9 105.6 430.6C108.9 430.3 112 429.5 115.1 428.3C115.7 428.1 115.4 427.1 114.8 427.3C109.4 429.5 103.3 430.6 97.5998 428.7C94.7998 427.7 92.4998 425.9 89.8998 424.6C87.3998 423.3 84.5998 422.4 81.7998 422C78.6998 421.6 75.4998 421.7 72.3998 422.4C71.7998 422.6 72.0998 423.6 72.6998 423.4Z" fill="#5D0505"/>
<path d="M120.7 425.3C123.4 423.5 126 421.6 128.4 419.5C128.9 419.1 128.2 418.4 127.7 418.8C125.3 420.8 122.8 422.7 120.2 424.4C119.7 424.8 120.2 425.7 120.7 425.3Z" fill="#5D0505"/>
<path d="M120.5 409.9C117.5 413.3 113.7 415.9 109.3 417.3C108.7 417.5 108.9 418.5 109.6 418.3C114.1 416.9 118.1 414.2 121.2 410.7C121.6 410.1 120.9 409.4 120.5 409.9Z" fill="#5D0505"/>
<path d="M124.7 411.2C123.3 412.6 121.7 413.8 119.9 414.7C119.3 415 119.8 415.9 120.4 415.6C122.2 414.6 123.9 413.4 125.4 411.9C125.8 411.5 125.1 410.8 124.7 411.2Z" fill="#5D0505"/>
<path d="M79.7999 413.6C85.8999 416.3 92.7999 416.9 99.1999 415.1C99.7999 414.9 99.5999 414 98.8999 414.1C92.6999 415.7 86.0999 415.2 80.2999 412.7C79.6999 412.4 79.1999 413.3 79.7999 413.6Z" fill="#5D0505"/>
<path d="M48.2999 475.2C52.9999 478.2 58.2999 480 63.7999 480.5C64.3999 480.6 64.3999 479.6 63.7999 479.5C58.3999 479 53.2999 477.2 48.7999 474.3C48.2999 473.9 47.7999 474.8 48.2999 475.2Z" fill="#5D0505"/>
<path d="M49.4 482.6C53.1 484.1 57.2 484.8 61.2 484.7C61.8 484.7 61.8 483.7 61.2 483.7C57.2 483.8 53.3 483.1 49.6 481.7C49.1 481.4 48.8 482.4 49.4 482.6Z" fill="#5D0505"/>
<path d="M160.3 466.6C156.8 469 152.7 470.6 148.5 471C147.9 471.1 147.9 472.1 148.5 472C152.9 471.6 157.2 470 160.8 467.5C161.4 467.1 160.9 466.2 160.3 466.6Z" fill="#5D0505"/>
</g>
<path d="M795.5 560C796.957 563.938 800.062 567.043 804 568.5C800.062 569.957 796.957 573.062 795.5 577C794.043 573.062 790.938 569.957 787 568.5C790.938 567.043 794.043 563.938 795.5 560Z" fill="#E76363"/>
<path d="M902.5 551C903.957 554.938 907.062 558.043 911 559.5C907.062 560.957 903.957 564.062 902.5 568C901.043 564.062 897.938 560.957 894 559.5C897.938 558.043 901.043 554.938 902.5 551Z" fill="#E76363"/>
<path d="M722.5 354C723.957 357.938 727.062 361.043 731 362.5C727.062 363.957 723.957 367.062 722.5 371C721.043 367.062 717.938 363.957 714 362.5C717.938 361.043 721.043 357.938 722.5 354Z" fill="#E76363"/>
<path d="M1005.5 131C1006.96 134.938 1010.06 138.043 1014 139.5C1010.06 140.957 1006.96 144.062 1005.5 148C1004.04 144.062 1000.94 140.957 997 139.5C1000.94 138.043 1004.04 134.938 1005.5 131Z" fill="#E76363"/>
<path d="M990.5 87C991.957 90.938 995.062 94.0428 999 95.5C995.062 96.9572 991.957 100.062 990.5 104C989.043 100.062 985.938 96.9572 982 95.5C985.938 94.0428 989.043 90.938 990.5 87Z" fill="#E76363"/>
<path d="M890.5 148C891.957 151.938 895.062 155.043 899 156.5C895.062 157.957 891.957 161.062 890.5 165C889.043 161.062 885.938 157.957 882 156.5C885.938 155.043 889.043 151.938 890.5 148Z" fill="#E76363"/>
<path d="M468.5 518C469.957 521.938 473.062 525.043 477 526.5C473.062 527.957 469.957 531.062 468.5 535C467.043 531.062 463.938 527.957 460 526.5C463.938 525.043 467.043 521.938 468.5 518Z" fill="#E76363"/>
<path d="M384.5 504C385.957 507.938 389.062 511.043 393 512.5C389.062 513.957 385.957 517.062 384.5 521C383.043 517.062 379.938 513.957 376 512.5C379.938 511.043 383.043 507.938 384.5 504Z" fill="#E76363"/>
<circle cx="725.5" cy="555.5" r="3.5" fill="#E76363"/>
<circle cx="418.5" cy="526.5" r="3.5" fill="#E76363"/>
<circle cx="330.5" cy="531.5" r="3.5" fill="#E76363"/>
<circle cx="707.5" cy="421.5" r="3.5" fill="#E76363"/>
<circle cx="938.5" cy="165.5" r="3.5" fill="#E76363"/>
<circle cx="914.5" cy="120.5" r="3.5" fill="#E76363"/>
<path d="M162.5 5C117.5 56.5 131 65.5 63 69.5C-5 73.5 -41 93.5 -51 103.5" stroke="#ECD0D0" stroke-width="4"/>
<path d="M89.5 75C147.5 75.8 178.333 25.3333 186.5 0H203.5C200 69.5 110.5 82 71 88C39.4 92.8 11.8333 119.333 2 132L-16.5 113C-5.33333 100 31.5 74.2 89.5 75Z" fill="#ECD0D0"/>
<path d="M2.15571 193.015C1.62512 199.449 2.26859 204.079 1.90843 206C-0.186359 202.579 0.048579 198.084 2.15571 193.015C3.83491 172.655 17.2734 134.236 111.5 106.5C164.158 90.9999 202.908 44 207.408 20H235.908C207.408 85 186 113.5 81.4084 138C44.7215 146.594 10.1075 173.888 2.15571 193.015Z" fill="#ECD0D0"/>
<path d="M206.856 86.2182C219.266 73.7767 232.511 69.5554 237.582 69C220.578 85.9405 226.082 82.5 213.582 96C205.587 104.634 189.495 104.299 183.668 103.832C183.249 103.821 182.827 103.78 182.395 103.714C182.387 103.713 182.379 103.712 182.371 103.71C181.28 103.591 181.141 103.525 182.371 103.71C182.714 103.748 183.15 103.79 183.668 103.832C188.29 103.957 192.636 100.476 206.856 86.2182Z" fill="#ECD0D0"/>
<path fill-rule="evenodd" clip-rule="evenodd" d="M1173.94 170.061C1209.27 176.665 1240.26 192.372 1262.32 218.968C1283.94 245.02 1295.18 276.894 1289.57 309.431C1283.44 344.986 1265.14 378.85 1231.67 396.734C1195.29 416.17 1149.48 422.367 1112.42 404.075C1076.59 386.385 1069.3 345.663 1055.88 309.949C1038.74 264.316 994.26 212.83 1026.31 174.848C1058.38 136.854 1123.14 160.565 1173.94 170.061Z" fill="url(#paint0_linear_578_6)"/>
<mask id="mask0_578_6" style="mask-type:alpha" maskUnits="userSpaceOnUse" x="1015" y="154" width="276" height="261">
<path fill-rule="evenodd" clip-rule="evenodd" d="M1173.94 170.061C1209.27 176.665 1240.26 192.372 1262.32 218.968C1283.94 245.02 1295.18 276.894 1289.57 309.431C1283.44 344.986 1265.14 378.85 1231.67 396.734C1195.29 416.17 1149.48 422.367 1112.42 404.075C1076.59 386.385 1069.3 345.663 1055.88 309.949C1038.74 264.316 994.26 212.83 1026.31 174.848C1058.38 136.854 1123.14 160.565 1173.94 170.061Z" fill="url(#paint1_linear_578_6)"/>
</mask>
<g mask="url(#mask0_578_6)">
<path opacity="0.6" d="M1058.5 199.5C1114.9 131.9 1203.67 111 1241 109L1267.08 116.159C1276.93 117.665 1285.42 120.175 1292 123L1267.08 116.159C1227.53 110.111 1166.03 120.228 1118 191C1058 279.4 979.667 284.5 948 276C961.333 278.667 1002.1 267.1 1058.5 199.5Z" fill="#D25757"/>
<path opacity="0.6" d="M1057.11 268.022C1151.11 257.522 1135.11 197.022 1189.11 139.522C1202.28 135.355 1223.81 129.522 1204.61 139.522C1180.61 152.022 1172.61 169.022 1155.61 223.522C1142.01 267.122 1090.95 281.188 1062.61 279.522C1029.45 279.188 981.915 276.422 1057.11 268.022Z" fill="#D25757"/>
<path d="M1168.5 150.5C1155.33 161.167 1144.23 191.938 1109.5 228C1083.5 255 1046 277.833 1028 267.5" stroke="#B53434" stroke-width="4"/>
</g>
<path fill-rule="evenodd" clip-rule="evenodd" d="M828.971 398.003C858.317 398.028 889.828 399.762 909.085 419.016C929.122 439.049 933.592 468.174 924.505 493.519C916.152 516.814 892.228 533.055 865.514 540.536C842.849 546.883 819.744 538.834 799.002 528.666C780.347 519.52 767.115 505.706 759.184 488.41C748.708 465.564 732.895 439.301 748.659 418.879C765.041 397.657 799.574 397.978 828.971 398.003Z" fill="url(#paint2_linear_578_6)"/>
<mask id="mask1_578_6" style="mask-type:alpha" maskUnits="userSpaceOnUse" x="742" y="398" width="187" height="145">
<path fill-rule="evenodd" clip-rule="evenodd" d="M828.971 398.003C858.317 398.028 889.828 399.762 909.085 419.016C929.122 439.049 933.592 468.174 924.505 493.519C916.152 516.814 892.228 533.055 865.514 540.536C842.849 546.883 819.744 538.834 799.002 528.666C780.347 519.52 767.115 505.706 759.184 488.41C748.708 465.564 732.895 439.301 748.659 418.879C765.041 397.657 799.574 397.978 828.971 398.003Z" fill="url(#paint3_linear_578_6)"/>
</mask>
<g mask="url(#mask1_578_6)">
<path d="M731 525.75C749.4 464.708 845.833 377.19 883 357.536L878.5 399.156C796.5 436.152 746 498.967 731 525.75Z" fill="#B63434"/>
</g>
<defs>
<linearGradient id="paint0_linear_578_6" x1="1153" y1="154" x2="1345" y2="472" gradientUnits="userSpaceOnUse">
<stop stop-color="#8F0202"/>
<stop offset="1"/>
</linearGradient>
<linearGradient id="paint1_linear_578_6" x1="1153" y1="154" x2="1345" y2="472" gradientUnits="userSpaceOnUse">
<stop stop-color="#8F0202"/>
<stop offset="1"/>
</linearGradient>
<linearGradient id="paint2_linear_578_6" x1="835.5" y1="398" x2="950.635" y2="743.092" gradientUnits="userSpaceOnUse">
<stop stop-color="#8F0202"/>
<stop offset="1"/>
</linearGradient>
<linearGradient id="paint3_linear_578_6" x1="835.5" y1="398" x2="950.635" y2="743.092" gradientUnits="userSpaceOnUse">
<stop stop-color="#8F0202"/>
<stop offset="1"/>
</linearGradient>
<clipPath id="clip0_578_6">
<rect width="114.7" height="113.4" fill="white" transform="translate(47 407)"/>
</clipPath>
</defs>
</svg>
