<svg width="802" height="2342" viewBox="0 0 802 2342" fill="none" xmlns="http://www.w3.org/2000/svg">
<line x1="4" y1="2340" x2="4" stroke="#ECD0D0" stroke-width="8"/>
<line x1="27" y1="2341" x2="27" y2="4.00049" stroke="#ECD0D0" stroke-width="8" stroke-dasharray="20 20"/>
<line x1="54" y1="2340" x2="54" y2="158" stroke="#ECD0D0" stroke-width="8"/>
<line x1="802" y1="163" x2="54" y2="163" stroke="#ECD0D0" stroke-width="8"/>
<line x1="54" y1="141" x2="802" y2="141" stroke="#ECD0D0" stroke-width="8" stroke-dasharray="20 20"/>
<line x1="802" y1="115" x2="54" y2="115" stroke="#ECD0D0" stroke-width="8"/>
<line x1="54" y1="119" x2="54" y2="0.000488106" stroke="#ECD0D0" stroke-width="8"/>
<line x1="4" y1="2340" x2="4" stroke="#ECD0D0" stroke-width="8"/>
<line x1="27" y1="2341" x2="27" y2="4.00049" stroke="#ECD0D0" stroke-width="8" stroke-dasharray="20 20"/>
<line x1="54" y1="2340" x2="54" y2="158" stroke="#ECD0D0" stroke-width="8"/>
<line x1="802" y1="163" x2="54" y2="163" stroke="#ECD0D0" stroke-width="8"/>
<line x1="54" y1="141" x2="802" y2="141" stroke="#ECD0D0" stroke-width="8" stroke-dasharray="20 20"/>
<line x1="802" y1="115" x2="54" y2="115" stroke="#ECD0D0" stroke-width="8"/>
<line x1="802" y1="810" x2="54" y2="810" stroke="#ECD0D0" stroke-width="8"/>
<line x1="54" y1="788" x2="802" y2="788" stroke="#ECD0D0" stroke-width="8" stroke-dasharray="20 20"/>
<line x1="802" y1="762" x2="54" y2="762" stroke="#ECD0D0" stroke-width="8"/>
<line x1="54" y1="119" x2="54" y2="0.000488106" stroke="#ECD0D0" stroke-width="8"/>
</svg>
