<svg width="226" height="1932" viewBox="0 0 226 1932" fill="none" xmlns="http://www.w3.org/2000/svg">
<path d="M190 0H226V95C226 111.569 212.569 125 196 125H190V0Z" fill="#8F0202"/>
<path d="M57 119.831H0V1869.17C0 1885.74 13.4315 1899.17 30 1899.17H57V119.831Z" fill="#8F0202"/>
<path d="M190 125L190 71L30 71C13.4315 71 -2.0912e-06 84.4315 -1.23714e-06 101L0 125L190 125Z" fill="#8F0202"/>
<path d="M57 1899L57 1851L196 1851C212.569 1851 226 1864.43 226 1881L226 1899L57 1899Z" fill="#8F0202"/>
<rect x="190" y="1898" width="36" height="34" fill="#8F0202"/>
<path d="M169 0H217V89C217 105.569 203.569 119 187 119H169V0Z" fill="#5D0505"/>
<rect x="169" y="1885" width="48" height="47" fill="#5D0505"/>
<path d="M57 119H9V1856C9 1872.57 22.4315 1886 39 1886H57V119Z" fill="#5E0505"/>
<path d="M169 119L169 71L39 71C22.4315 71 9 84.4315 9 101L9 119L169 119Z" fill="#5E0505"/>
<path d="M57 1886L57 1838L187 1838C203.569 1838 217 1851.43 217 1868L217 1886L57 1886Z" fill="#5E0505"/>
<line x1="191.5" y1="1" x2="191.5" y2="95" stroke="white" stroke-width="3" stroke-dasharray="10 10"/>
<line x1="36" y1="96.5" x2="184" y2="96.5" stroke="white" stroke-width="3" stroke-dasharray="10 10"/>
<line x1="40" y1="1860.5" x2="188" y2="1860.5" stroke="white" stroke-width="3" stroke-dasharray="10 10"/>
<line x1="188.5" y1="1932" x2="188.5" y2="1872" stroke="white" stroke-width="3" stroke-dasharray="10 10"/>
<line x1="29.5" y1="98" x2="29.4999" y2="1862" stroke="white" stroke-width="3" stroke-dasharray="10 10"/>
<path d="M32.7276 1554.5C30.7714 1557.65 26.1908 1557.65 24.2345 1554.5L17.2244 1543.22C15.1543 1539.89 17.5494 1535.58 21.471 1535.58H35.4911C39.4127 1535.58 41.8078 1539.89 39.7377 1543.22L32.7276 1554.5Z" fill="#D9D9D9"/>
<path d="M32.7276 1588.83C30.7714 1591.98 26.1908 1591.98 24.2345 1588.83L17.2244 1577.56C15.1543 1574.23 17.5494 1569.92 21.471 1569.92H35.4911C39.4127 1569.92 41.8078 1574.23 39.7377 1577.56L32.7276 1588.83Z" fill="#D9D9D9"/>
<path d="M32.7276 1623.17C30.7714 1626.32 26.1908 1626.32 24.2345 1623.17L17.2244 1611.89C15.1543 1608.56 17.5494 1604.25 21.471 1604.25H35.4911C39.4127 1604.25 41.8078 1608.56 39.7377 1611.89L32.7276 1623.17Z" fill="#D9D9D9"/>
<path d="M32.7276 349.501C30.7714 352.648 26.1908 352.648 24.2345 349.501L17.2244 338.223C15.1543 334.892 17.5494 330.583 21.471 330.583H35.4911C39.4127 330.583 41.8078 334.892 39.7377 338.223L32.7276 349.501Z" fill="#D9D9D9"/>
<path d="M32.7276 383.835C30.7714 386.982 26.1908 386.982 24.2345 383.835L17.2244 372.556C15.1543 369.226 17.5494 364.917 21.471 364.917H35.4911C39.4127 364.917 41.8078 369.226 39.7377 372.556L32.7276 383.835Z" fill="#D9D9D9"/>
<path d="M32.7276 418.168C30.7714 421.315 26.1908 421.315 24.2345 418.168L17.2244 406.889C15.1543 403.559 17.5494 399.25 21.471 399.25H35.4911C39.4127 399.25 41.8078 403.559 39.7377 406.889L32.7276 418.168Z" fill="#D9D9D9"/>
<path d="M32.7276 793.501C30.7714 796.648 26.1908 796.648 24.2345 793.501L17.2244 782.223C15.1543 778.892 17.5494 774.583 21.471 774.583H35.4911C39.4127 774.583 41.8078 778.892 39.7377 782.223L32.7276 793.501Z" fill="#D9D9D9"/>
<path d="M32.7276 827.835C30.7714 830.982 26.1908 830.982 24.2345 827.835L17.2244 816.556C15.1543 813.226 17.5494 808.917 21.471 808.917H35.4911C39.4127 808.917 41.8078 813.226 39.7377 816.556L32.7276 827.835Z" fill="#D9D9D9"/>
<path d="M32.7276 862.168C30.7714 865.315 26.1908 865.315 24.2345 862.168L17.2244 850.889C15.1543 847.559 17.5494 843.25 21.471 843.25H35.4911C39.4127 843.25 41.8078 847.559 39.7377 850.889L32.7276 862.168Z" fill="#D9D9D9"/>
<path d="M32.7276 1166.5C30.7714 1169.65 26.1908 1169.65 24.2345 1166.5L17.2244 1155.22C15.1543 1151.89 17.5494 1147.58 21.471 1147.58H35.4911C39.4127 1147.58 41.8078 1151.89 39.7377 1155.22L32.7276 1166.5Z" fill="#D9D9D9"/>
<path d="M32.7276 1200.83C30.7714 1203.98 26.1908 1203.98 24.2345 1200.83L17.2244 1189.56C15.1543 1186.23 17.5494 1181.92 21.471 1181.92H35.4911C39.4127 1181.92 41.8078 1186.23 39.7377 1189.56L32.7276 1200.83Z" fill="#D9D9D9"/>
<path d="M32.7276 1235.17C30.7714 1238.32 26.1908 1238.32 24.2345 1235.17L17.2244 1223.89C15.1543 1220.56 17.5494 1216.25 21.471 1216.25H35.4911C39.4127 1216.25 41.8078 1220.56 39.7377 1223.89L32.7276 1235.17Z" fill="#D9D9D9"/>
</svg>
