<svg width="1337" height="2552" viewBox="0 0 1337 2552" fill="none" xmlns="http://www.w3.org/2000/svg">
<path d="M1199 255H1337V669C1337 724.228 1292.23 769 1237 769H1199V255Z" fill="#8F0202"/>
<path d="M1200 769V617H100C44.7715 617 0 661.772 0 717V769H1200Z" fill="#8F0202"/>
<path d="M1199 1312H1336V1795C1336 1850.23 1291.23 1895 1236 1895H1199V1312Z" fill="#8F0202"/>
<path d="M1214 1896V1733H101C45.7716 1733 1 1777.77 1 1833V1896H1214Z" fill="#8F0202"/>
<path d="M138 762H0V1232C0 1287.23 44.7715 1332 100 1332H138V762Z" fill="#8F0202"/>
<path d="M131 1332L131 1179H1236C1291.23 1179 1336 1223.77 1336 1279V1332H131Z" fill="#8F0202"/>
<path d="M138 1868H0V2347C0 2402.23 44.7715 2447 100 2447H138V1868Z" fill="#8F0202"/>
<path d="M130 2447V2282H1237C1292.23 2282 1337 2326.77 1337 2382V2447H130Z" fill="#8F0202"/>
<rect x="1199" y="2444" width="138" height="108" fill="#8F0202"/>
<path d="M1188 743V593H127C71.7715 593 27 637.772 27 693V743H1188Z" fill="#5E0505"/>
<path d="M1188 1293H1315V1769C1315 1824.23 1270.23 1869 1215 1869H1188V1293Z" fill="#5E0505"/>
<path d="M1188 1869V1719H126C70.7715 1719 26 1763.77 26 1819V1869H1188Z" fill="#5E0505"/>
<path d="M155 743H27V1206C27 1261.23 71.7715 1306 127 1306H155V743Z" fill="#5E0505"/>
<path d="M1051 259V107H1237C1292.23 107 1337 151.772 1337 207V259H1051Z" fill="#8F0202"/>
<path d="M155 1306L155 1156H1215C1270.23 1156 1315 1200.77 1315 1256V1306H155Z" fill="#5E0505"/>
<path d="M153 1842H26V2321C26 2376.23 70.7715 2421 126 2421H153V1842Z" fill="#5E0505"/>
<path d="M153 2421V2282H1215C1270.23 2282 1315 2326.77 1315 2382V2421H153Z" fill="#5E0505"/>
<path d="M1188 193H1315.5V643C1315.5 698.228 1270.73 743 1215.5 743H1188V193Z" fill="#5E0505"/>
<path d="M1038 235V85H1215C1270.23 85 1315 129.772 1315 185V235L1038 235Z" fill="#5E0505"/>
<path d="M1082 0H944V159C944 214.228 988.772 259 1044 259H1082V0Z" fill="#8F0202"/>
<path d="M1091 0H963V135C963 190.228 1007.77 235 1063 235H1091V0Z" fill="#5E0505"/>
<rect x="1190" y="2421" width="125" height="131" fill="#5D0505"/>
<path d="M111 662L1248 666" stroke="white" stroke-width="9" stroke-dasharray="20 20"/>
<path d="M1256.5 1235L127 1235" stroke="white" stroke-width="9" stroke-dasharray="20 20"/>
<path d="M1257.5 1793L120 1793" stroke="white" stroke-width="9" stroke-dasharray="20 20"/>
<line x1="1248" y1="2355.5" x2="119" y2="2355.56" stroke="white" stroke-width="9" stroke-dasharray="20 20"/>
<path d="M91 1237L91 658" stroke="white" stroke-width="9" stroke-dasharray="20 20"/>
<line x1="91.5" y1="2361" x2="91.5" y2="1789" stroke="white" stroke-width="9" stroke-dasharray="20 20"/>
<line x1="1252.5" y1="1762" x2="1252.5" y2="1253" stroke="white" stroke-width="9" stroke-dasharray="20 20"/>
<line x1="1244.5" y1="2552" x2="1244.5" y2="2349" stroke="white" stroke-width="9" stroke-dasharray="20 20"/>
<line x1="1247.5" y1="643" x2="1247.5" y2="152" stroke="white" stroke-width="9" stroke-dasharray="20 20"/>
<line x1="1018" y1="156.5" x2="1221" y2="156.5" stroke="white" stroke-width="9" stroke-dasharray="20 20"/>
<line x1="1020.5" y1="132.033" x2="1020.5" y2="9.96722" stroke="white" stroke-width="9" stroke-dasharray="20 20"/>
<path d="M1251.75 369.834C1249.79 372.982 1245.21 372.982 1243.25 369.834L1219.77 332.056C1217.7 328.725 1220.1 324.417 1224.02 324.417H1270.98C1274.9 324.417 1277.3 328.725 1275.23 332.056L1251.75 369.834Z" fill="#D9D9D9"/>
<path d="M1251.75 439.501C1249.79 442.648 1245.21 442.648 1243.25 439.501L1219.77 401.723C1217.7 398.392 1220.1 394.083 1224.02 394.083H1270.98C1274.9 394.083 1277.3 398.392 1275.23 401.723L1251.75 439.501Z" fill="#D9D9D9"/>
<path d="M1251.75 509.168C1249.79 512.315 1245.21 512.315 1243.25 509.168L1219.77 471.389C1217.7 468.059 1220.1 463.75 1224.02 463.75H1270.98C1274.9 463.75 1277.3 468.059 1275.23 471.389L1251.75 509.168Z" fill="#D9D9D9"/>
<path d="M93.7466 918.834C91.7903 921.982 87.2097 921.982 85.2534 918.834L61.7723 881.056C59.7022 877.725 62.0973 873.417 66.0189 873.417H112.981C116.903 873.417 119.298 877.725 117.228 881.056L93.7466 918.834Z" fill="#D9D9D9"/>
<path d="M93.7466 988.501C91.7903 991.649 87.2097 991.649 85.2534 988.501L61.7723 950.723C59.7022 947.392 62.0973 943.083 66.0189 943.083H112.981C116.903 943.083 119.298 947.392 117.228 950.723L93.7466 988.501Z" fill="#D9D9D9"/>
<path d="M93.7466 1058.17C91.7903 1061.32 87.2097 1061.32 85.2534 1058.17L61.7723 1020.39C59.7022 1017.06 62.0973 1012.75 66.0189 1012.75H112.981C116.903 1012.75 119.298 1017.06 117.228 1020.39L93.7466 1058.17Z" fill="#D9D9D9"/>
<path d="M1255.75 1481.83C1253.79 1484.98 1249.21 1484.98 1247.25 1481.83L1223.77 1444.06C1221.7 1440.73 1224.1 1436.42 1228.02 1436.42H1274.98C1278.9 1436.42 1281.3 1440.73 1279.23 1444.06L1255.75 1481.83Z" fill="#D9D9D9"/>
<path d="M1255.75 1551.5C1253.79 1554.65 1249.21 1554.65 1247.25 1551.5L1223.77 1513.72C1221.7 1510.39 1224.1 1506.08 1228.02 1506.08H1274.98C1278.9 1506.08 1281.3 1510.39 1279.23 1513.72L1255.75 1551.5Z" fill="#D9D9D9"/>
<path d="M1255.75 1621.17C1253.79 1624.32 1249.21 1624.32 1247.25 1621.17L1223.77 1583.39C1221.7 1580.06 1224.1 1575.75 1228.02 1575.75H1274.98C1278.9 1575.75 1281.3 1580.06 1279.23 1583.39L1255.75 1621.17Z" fill="#D9D9D9"/>
<path d="M96.7466 2044.83C94.7903 2047.98 90.2097 2047.98 88.2534 2044.83L64.7723 2007.06C62.7022 2003.73 65.0973 1999.42 69.0189 1999.42H115.981C119.903 1999.42 122.298 2003.73 120.228 2007.06L96.7466 2044.83Z" fill="#D9D9D9"/>
<path d="M96.7466 2114.5C94.7903 2117.65 90.2097 2117.65 88.2534 2114.5L64.7723 2076.72C62.7022 2073.39 65.0973 2069.08 69.0189 2069.08H115.981C119.903 2069.08 122.298 2073.39 120.228 2076.72L96.7466 2114.5Z" fill="#D9D9D9"/>
<path d="M96.7466 2184.17C94.7903 2187.32 90.2097 2187.32 88.2534 2184.17L64.7723 2146.39C62.7022 2143.06 65.0973 2138.75 69.0189 2138.75H115.981C119.903 2138.75 122.298 2143.06 120.228 2146.39L96.7466 2184.17Z" fill="#D9D9D9"/>
</svg>
