<svg width="594" height="2362" viewBox="0 0 594 2362" fill="none" xmlns="http://www.w3.org/2000/svg">
<rect x="484" y="2274" width="110" height="88" fill="#8F0202"/>
<path d="M477.218 0H587V272C587 316.183 551.183 352 507 352H477.218V0Z" fill="#8F0202"/>
<path d="M109.782 341H4.57764e-05V2194C4.57764e-05 2238.18 35.8172 2274 80 2274H109.782V341Z" fill="#8F0202"/>
<path d="M484.218 352V253L79.9999 253C35.8172 253 -6.10352e-05 288.817 -6.10352e-05 333V352H484.218Z" fill="#8F0202"/>
<path d="M91 2274L91 2157H514C558.183 2157 594 2192.82 594 2237V2274H91Z" fill="#8F0202"/>
<path d="M469 0H569V236C569 280.183 533.183 316 489 316H469V0Z" fill="#5D0505"/>
<path d="M127 316H27V2160C27 2204.18 62.8172 2240 107 2240H127V316Z" fill="#5E0505"/>
<path d="M469 316V216L107 216C62.8172 216 27 251.817 27 296V316H469Z" fill="#5E0505"/>
<path d="M127 2240V2140H489C533.183 2140 569 2175.82 569 2220V2240H127Z" fill="#5E0505"/>
<rect x="469" y="2240" width="100" height="122" fill="#5D0505"/>
<line x1="520.5" y1="253.077" x2="520.5" y2="19" stroke="white" stroke-width="5" stroke-dasharray="20 20"/>
<line x1="516.5" y1="2362" x2="516.5" y2="2208" stroke="white" stroke-width="5" stroke-dasharray="20 20"/>
<line x1="77" y1="263.5" x2="519" y2="263.5" stroke="white" stroke-width="5" stroke-dasharray="20 20"/>
<line x1="91" y1="2187.5" x2="519" y2="2187.5" stroke="white" stroke-width="5" stroke-dasharray="20 20"/>
<line x1="74.5" y1="2190.08" x2="74.5" y2="279" stroke="white" stroke-width="5" stroke-dasharray="20 20"/>
<path d="M79.108 636.501C77.1517 639.648 72.5711 639.648 70.6148 636.501L52.8831 607.973C50.8129 604.642 53.208 600.333 57.1296 600.333H92.5932C96.5148 600.333 98.9099 604.642 96.8397 607.973L79.108 636.501Z" fill="#D9D9D9"/>
<path d="M79.108 693.835C77.1517 696.982 72.5711 696.982 70.6148 693.835L52.8831 665.306C50.8129 661.976 53.208 657.667 57.1296 657.667H92.5932C96.5148 657.667 98.9099 661.976 96.8397 665.306L79.108 693.835Z" fill="#D9D9D9"/>
<path d="M79.108 751.168C77.1517 754.315 72.5711 754.315 70.6148 751.168L52.8831 722.639C50.8129 719.309 53.208 715 57.1296 715H92.5932C96.5148 715 98.9099 719.309 96.8397 722.639L79.108 751.168Z" fill="#D9D9D9"/>
<path d="M248.501 2183.61C251.649 2185.57 251.649 2190.15 248.501 2192.11L219.973 2209.84C216.642 2211.91 212.333 2209.51 212.333 2205.59V2170.13C212.333 2166.21 216.642 2163.81 219.973 2165.88L248.501 2183.61Z" fill="#D9D9D9"/>
<path d="M305.834 2183.61C308.982 2185.57 308.982 2190.15 305.834 2192.11L277.306 2209.84C273.975 2211.91 269.667 2209.51 269.667 2205.59V2170.13C269.667 2166.21 273.975 2163.81 277.306 2165.88L305.834 2183.61Z" fill="#D9D9D9"/>
<path d="M363.168 2183.61C366.315 2185.57 366.315 2190.15 363.168 2192.11L334.639 2209.84C331.309 2211.91 327 2209.51 327 2205.59V2170.13C327 2166.21 331.309 2163.81 334.639 2165.88L363.168 2183.61Z" fill="#D9D9D9"/>
<path d="M79.108 1544.5C77.1517 1547.65 72.5711 1547.65 70.6148 1544.5L52.8831 1515.97C50.8129 1512.64 53.208 1508.33 57.1296 1508.33H92.5932C96.5148 1508.33 98.9099 1512.64 96.8397 1515.97L79.108 1544.5Z" fill="#D9D9D9"/>
<path d="M79.108 1601.83C77.1517 1604.98 72.5711 1604.98 70.6148 1601.83L52.8831 1573.31C50.8129 1569.98 53.208 1565.67 57.1296 1565.67H92.5932C96.5148 1565.67 98.9099 1569.98 96.8397 1573.31L79.108 1601.83Z" fill="#D9D9D9"/>
<path d="M79.108 1659.17C77.1517 1662.32 72.5711 1662.32 70.6148 1659.17L52.8831 1630.64C50.8129 1627.31 53.208 1623 57.1296 1623H92.5932C96.5148 1623 98.9099 1627.31 96.8397 1630.64L79.108 1659.17Z" fill="#D9D9D9"/>
<path d="M79.108 1103.5C77.1517 1106.65 72.5711 1106.65 70.6148 1103.5L52.8831 1074.97C50.8129 1071.64 53.208 1067.33 57.1296 1067.33H92.5932C96.5148 1067.33 98.9099 1071.64 96.8397 1074.97L79.108 1103.5Z" fill="#D9D9D9"/>
<path d="M79.108 1160.83C77.1517 1163.98 72.5711 1163.98 70.6148 1160.83L52.8831 1132.31C50.8129 1128.98 53.208 1124.67 57.1296 1124.67H92.5932C96.5148 1124.67 98.9099 1128.98 96.8397 1132.31L79.108 1160.83Z" fill="#D9D9D9"/>
<path d="M79.108 1218.17C77.1517 1221.32 72.5711 1221.32 70.6148 1218.17L52.8831 1189.64C50.8129 1186.31 53.208 1182 57.1296 1182H92.5932C96.5148 1182 98.9099 1186.31 96.8397 1189.64L79.108 1218.17Z" fill="#D9D9D9"/>
</svg>
